<svg width="248" height="63" viewBox="0 0 248 63" fill="none" xmlns="http://www.w3.org/2000/svg">
<rect x="1" y="9" width="45" height="45" rx="22.5" fill="#108E66"/>
<rect x="1" y="9" width="45" height="45" rx="22.5" stroke="white" stroke-width="2"/>
<path d="M18.8594 39.7812C18.0703 39.7812 17.6758 39.5625 17.6758 39.125V24.2539C17.6758 23.8164 18.0703 23.5977 18.8594 23.5977H28.7148C29.5039 23.5977 29.8984 23.8164 29.8984 24.2539C29.8984 24.6914 29.5039 24.9102 28.7148 24.9102H20.0547V30.9688H27.3203C28.1172 30.9688 28.5156 31.1875 28.5156 31.625C28.5156 32.0625 28.1172 32.2812 27.3203 32.2812H20.0547V39.125C20.0547 39.5625 19.6562 39.7812 18.8594 39.7812Z" fill="white"/>
<rect x="29" y="9" width="45" height="45" rx="22.5" fill="#220AA7"/>
<rect x="29" y="9" width="45" height="45" rx="22.5" stroke="white" stroke-width="2"/>
<path d="M53.4453 39.5H46.2148C45.418 39.5 45.0195 39.2812 45.0195 38.8438V24.2539C45.0195 23.8164 45.418 23.5977 46.2148 23.5977H52.7773C54.0273 23.5977 55.125 23.9961 56.0703 24.793C57.0234 25.582 57.5 26.6172 57.5 27.8984C57.5 29.3438 56.8828 30.4961 55.6484 31.3555C57.3906 32.1367 58.2617 33.418 58.2617 35.1992C58.2617 36.4961 57.7734 37.5391 56.7969 38.3281C55.8203 39.1094 54.7031 39.5 53.4453 39.5ZM52.7773 30.8984C53.4883 30.8984 54.0547 30.5547 54.4766 29.8672C54.9062 29.1719 55.1211 28.5156 55.1211 27.8984C55.1211 27.2812 54.9062 26.6289 54.4766 25.9414C54.0547 25.2539 53.4883 24.9102 52.7773 24.9102H47.3984V30.8984H52.7773ZM53.4453 38.1875C54.1719 38.1875 54.7578 37.8516 55.2031 37.1797C55.6562 36.5 55.8828 35.8398 55.8828 35.1992C55.8828 34.5508 55.6562 33.8906 55.2031 33.2188C54.7578 32.5391 54.1719 32.1992 53.4453 32.1992H47.3984V38.1875H53.4453Z" fill="white" fill-opacity="0.9"/>
<rect x="57" y="9" width="45" height="45" rx="22.5" fill="#700B76"/>
<rect x="57" y="9" width="45" height="45" rx="22.5" stroke="white" stroke-width="2"/>
<path d="M84.9492 39.5H74.4258C73.5742 39.5 73.1484 39.2656 73.1484 38.7969V24.3008C73.1484 23.832 73.5742 23.5977 74.4258 23.5977H84.9492C85.7461 23.5977 86.1445 23.8164 86.1445 24.2539C86.1445 24.6914 85.7461 24.9102 84.9492 24.9102H75.5273V30.8867H83.4609C84.25 30.8867 84.6445 31.1055 84.6445 31.543C84.6445 31.9805 84.25 32.1992 83.4609 32.1992H75.5273V38.1875H84.9492C85.7461 38.1875 86.1445 38.4062 86.1445 38.8438C86.1445 39.2812 85.7461 39.5 84.9492 39.5Z" fill="white" fill-opacity="0.9"/>
<path d="M124.11 39.66C122.87 39.66 121.81 39.3867 120.93 38.84C120.05 38.2933 119.376 37.5067 118.91 36.48C118.456 35.44 118.23 34.1733 118.23 32.68C118.23 31.0933 118.51 29.7533 119.07 28.66C119.63 27.5667 120.41 26.74 121.41 26.18C122.41 25.62 123.556 25.34 124.85 25.34C125.516 25.34 126.15 25.4067 126.75 25.54C127.363 25.6733 127.89 25.88 128.33 26.16L127.57 27.72C127.21 27.4667 126.796 27.2933 126.33 27.2C125.876 27.1067 125.396 27.06 124.89 27.06C123.463 27.06 122.33 27.5067 121.49 28.4C120.65 29.28 120.23 30.5933 120.23 32.34C120.23 32.62 120.243 32.9533 120.27 33.34C120.296 33.7267 120.363 34.1067 120.47 34.48L119.79 33.8C119.99 33.1867 120.303 32.6733 120.73 32.26C121.17 31.8333 121.69 31.52 122.29 31.32C122.903 31.1067 123.563 31 124.27 31C125.203 31 126.03 31.1733 126.75 31.52C127.47 31.8667 128.036 32.36 128.45 33C128.863 33.6267 129.07 34.3733 129.07 35.24C129.07 36.1333 128.85 36.9133 128.41 37.58C127.97 38.2467 127.376 38.76 126.63 39.12C125.883 39.48 125.043 39.66 124.11 39.66ZM124.03 38.04C124.643 38.04 125.176 37.9267 125.63 37.7C126.096 37.4733 126.463 37.16 126.73 36.76C126.996 36.3467 127.13 35.8667 127.13 35.32C127.13 34.4933 126.843 33.84 126.27 33.36C125.696 32.8667 124.916 32.62 123.93 32.62C123.29 32.62 122.73 32.74 122.25 32.98C121.77 33.22 121.39 33.5467 121.11 33.96C120.843 34.36 120.71 34.82 120.71 35.34C120.71 35.82 120.836 36.2667 121.09 36.68C121.343 37.08 121.716 37.4067 122.21 37.66C122.703 37.9133 123.31 38.04 124.03 38.04ZM136.293 39.66C135.2 39.66 134.22 39.38 133.353 38.82C132.5 38.26 131.82 37.4467 131.313 36.38C130.82 35.3133 130.573 34.02 130.573 32.5C130.573 30.98 130.82 29.6867 131.313 28.62C131.82 27.5533 132.5 26.74 133.353 26.18C134.22 25.62 135.2 25.34 136.293 25.34C137.373 25.34 138.347 25.62 139.213 26.18C140.08 26.74 140.76 27.5533 141.253 28.62C141.747 29.6867 141.993 30.98 141.993 32.5C141.993 34.02 141.747 35.3133 141.253 36.38C140.76 37.4467 140.08 38.26 139.213 38.82C138.347 39.38 137.373 39.66 136.293 39.66ZM136.293 37.88C137.027 37.88 137.667 37.68 138.213 37.28C138.773 36.88 139.207 36.28 139.513 35.48C139.833 34.68 139.993 33.6867 139.993 32.5C139.993 31.3133 139.833 30.32 139.513 29.52C139.207 28.72 138.773 28.12 138.213 27.72C137.667 27.32 137.027 27.12 136.293 27.12C135.56 27.12 134.913 27.32 134.353 27.72C133.793 28.12 133.353 28.72 133.033 29.52C132.727 30.32 132.573 31.3133 132.573 32.5C132.573 33.6867 132.727 34.68 133.033 35.48C133.353 36.28 133.793 36.88 134.353 37.28C134.913 37.68 135.56 37.88 136.293 37.88ZM148.07 36.88V28.12H149.75V36.88H148.07ZM144.43 33.3V31.72H153.39V33.3H144.43Z" fill="black" fill-opacity="0.75"/>
<path d="M176.564 38.7344C175.9 38.7344 175.568 38.5553 175.568 38.1973V29.2031L171.857 38.3145C171.747 38.5944 171.395 38.7344 170.803 38.7344C170.21 38.7344 169.852 38.5977 169.729 38.3242L165.529 28.9688V38.3535C165.529 38.6074 165.272 38.7344 164.758 38.7344C164.243 38.7344 163.986 38.6074 163.986 38.3535V25.5605C163.986 25.196 164.367 25.0137 165.129 25.0137C165.695 25.0137 166.04 25.1504 166.164 25.4238L171.057 36.3613L175.529 25.4238C175.646 25.1504 175.988 25.0137 176.555 25.0137C177.219 25.0137 177.551 25.196 177.551 25.5605V38.1973C177.551 38.5553 177.222 38.7344 176.564 38.7344ZM184.289 38.7344C182.811 38.7344 181.564 38.2949 180.549 37.416C179.533 36.5306 179.025 35.3229 179.025 33.793C179.025 32.237 179.54 31.0065 180.568 30.1016C181.604 29.1901 182.873 28.7344 184.377 28.7344C185.809 28.7344 187.043 29.112 188.078 29.8672C189.113 30.6159 189.631 31.7389 189.631 33.2363C189.631 33.653 189.302 33.8613 188.645 33.8613H180.998C181.011 34.8249 181.304 35.6973 181.877 36.4785C182.45 37.2598 183.257 37.6504 184.299 37.6504C185.048 37.6504 185.741 37.4486 186.379 37.0449C187.049 36.6152 187.414 36.1074 187.473 35.5215C187.505 35.1829 187.827 35.0137 188.439 35.0137C189.11 35.0137 189.445 35.1927 189.445 35.5508C189.445 35.7331 189.39 35.9544 189.279 36.2148C189.038 36.7878 188.579 37.2956 187.902 37.7383C186.887 38.4023 185.682 38.7344 184.289 38.7344ZM187.629 32.7773C187.421 30.8047 186.337 29.8184 184.377 29.8184C182.632 29.8184 181.545 30.8047 181.115 32.7773H187.629ZM205.383 38.7344C204.725 38.7344 204.396 38.5521 204.396 38.1875V33.1094C204.396 32.3737 204.23 31.6478 203.898 30.9316C203.566 30.209 202.951 29.8477 202.053 29.8477C201.161 29.8477 200.552 30.2122 200.227 30.9414C199.901 31.6641 199.738 32.3835 199.738 33.0996V38.1875C199.738 38.5521 199.406 38.7344 198.742 38.7344C198.085 38.7344 197.756 38.5521 197.756 38.1875V33.1094C197.756 32.3737 197.59 31.6478 197.258 30.9316C196.926 30.209 196.307 29.8477 195.402 29.8477C194.628 29.8477 194.035 30.1829 193.625 30.8535C193.26 31.4525 193.078 32.2012 193.078 33.0996V38.1875C193.078 38.5521 192.749 38.7344 192.092 38.7344C191.428 38.7344 191.096 38.5521 191.096 38.1875V29.2812C191.096 28.9167 191.428 28.7344 192.092 28.7344C192.749 28.7344 193.078 28.9167 193.078 29.2812V29.877C193.716 29.1152 194.566 28.7344 195.627 28.7344C196.896 28.7344 197.935 29.2129 198.742 30.1699C199.536 29.2129 200.643 28.7344 202.062 28.7344C204.94 28.7344 206.379 30.1927 206.379 33.1094V38.1875C206.379 38.5521 206.047 38.7344 205.383 38.7344ZM209.338 38.7344C208.674 38.7344 208.342 38.5521 208.342 38.1875V25.5605C208.342 25.196 208.674 25.0137 209.338 25.0137C209.995 25.0137 210.324 25.196 210.324 25.5605V29.8574C211.079 29.1022 212.085 28.7246 213.342 28.7246C216.675 28.7246 218.342 30.3913 218.342 33.7246C218.342 37.0579 216.675 38.7246 213.342 38.7246C212.079 38.7246 211.073 38.347 210.324 37.5918V38.1875C210.324 38.5521 209.995 38.7344 209.338 38.7344ZM213.342 37.6309C214.37 37.6309 215.129 37.1979 215.617 36.332C216.112 35.4661 216.359 34.597 216.359 33.7246C216.359 32.8522 216.112 31.9831 215.617 31.1172C215.129 30.2513 214.37 29.8184 213.342 29.8184C212.32 29.8184 211.561 30.2513 211.066 31.1172C210.572 31.9831 210.324 32.8522 210.324 33.7246C210.324 34.597 210.572 35.4661 211.066 36.332C211.561 37.1979 212.32 37.6309 213.342 37.6309ZM224.582 38.7344C223.104 38.7344 221.857 38.2949 220.842 37.416C219.826 36.5306 219.318 35.3229 219.318 33.793C219.318 32.237 219.833 31.0065 220.861 30.1016C221.896 29.1901 223.166 28.7344 224.67 28.7344C226.102 28.7344 227.336 29.112 228.371 29.8672C229.406 30.6159 229.924 31.7389 229.924 33.2363C229.924 33.653 229.595 33.8613 228.938 33.8613H221.291C221.304 34.8249 221.597 35.6973 222.17 36.4785C222.743 37.2598 223.55 37.6504 224.592 37.6504C225.34 37.6504 226.034 37.4486 226.672 37.0449C227.342 36.6152 227.707 36.1074 227.766 35.5215C227.798 35.1829 228.12 35.0137 228.732 35.0137C229.403 35.0137 229.738 35.1927 229.738 35.5508C229.738 35.7331 229.683 35.9544 229.572 36.2148C229.331 36.7878 228.872 37.2956 228.195 37.7383C227.18 38.4023 225.975 38.7344 224.582 38.7344ZM227.922 32.7773C227.714 30.8047 226.63 29.8184 224.67 29.8184C222.925 29.8184 221.838 30.8047 221.408 32.7773H227.922ZM232.385 38.7344C231.721 38.7344 231.389 38.5521 231.389 38.1875V29.2812C231.389 28.9167 231.721 28.7344 232.385 28.7344C233.042 28.7344 233.371 28.9167 233.371 29.2812V29.877C233.911 29.1152 234.699 28.7344 235.734 28.7344C236.522 28.7344 237.202 28.9199 237.775 29.291C237.938 29.3952 238.02 29.5189 238.02 29.6621C238.02 29.8444 237.915 30.0039 237.707 30.1406C237.525 30.2643 237.323 30.3262 237.102 30.3262C236.893 30.3262 236.714 30.2708 236.564 30.1602C236.258 29.9193 235.917 29.7988 235.539 29.7988C234.784 29.7988 234.214 30.196 233.83 30.9902C233.524 31.6087 233.371 32.4421 233.371 33.4902V38.1875C233.371 38.5521 233.042 38.7344 232.385 38.7344ZM243.176 38.7344C242.212 38.7344 241.311 38.5228 240.471 38.0996C239.637 37.6699 239.077 36.9733 238.791 36.0098C238.765 35.9316 238.752 35.873 238.752 35.834C238.752 35.4759 239.081 35.2969 239.738 35.2969C240.318 35.2969 240.646 35.4499 240.725 35.7559C241.063 37.0189 241.877 37.6504 243.166 37.6504C243.706 37.6504 244.234 37.4876 244.748 37.1621C245.269 36.8301 245.529 36.3581 245.529 35.7461C245.529 35.362 245.246 35.0462 244.68 34.7988C244.296 34.6296 243.791 34.5026 243.166 34.418C242.645 34.3464 242.134 34.265 241.633 34.1738C241.138 34.0827 240.666 33.8874 240.217 33.5879C239.403 33.0475 238.996 32.3509 238.996 31.498C238.996 30.4954 239.488 29.7858 240.471 29.3691C241.46 28.946 242.368 28.7344 243.195 28.7344C244.042 28.7344 244.862 28.9232 245.656 29.3008C246.457 29.6784 246.975 30.3001 247.209 31.166C247.229 31.2246 247.238 31.2799 247.238 31.332C247.238 31.6641 246.91 31.8398 246.252 31.8594C245.673 31.8594 245.344 31.7031 245.266 31.3906C245.012 30.3424 244.318 29.8184 243.186 29.8184C242.697 29.8184 242.206 29.9551 241.711 30.2285C241.216 30.4954 240.969 30.9121 240.969 31.4785C240.969 31.8561 241.281 32.1686 241.906 32.416C242.329 32.5788 242.834 32.7057 243.42 32.7969C243.941 32.875 244.439 32.9629 244.914 33.0605C245.389 33.1517 245.852 33.3405 246.301 33.627C247.102 34.1348 247.502 34.8216 247.502 35.6875C247.502 36.7682 247.004 37.5462 246.008 38.0215C245.012 38.4967 244.068 38.7344 243.176 38.7344Z" fill="black" fill-opacity="0.75"/>
</svg>
