<svg width="38" height="38" viewBox="0 0 38 38" fill="none" xmlns="http://www.w3.org/2000/svg">
<path d="M27.8535 22.1248C28.2679 22.1248 28.6653 21.9602 28.9584 21.6672C29.2514 21.3741 29.416 20.9767 29.416 20.5623C29.416 20.1479 29.2514 19.7505 28.9584 19.4574C28.6653 19.1644 28.2679 18.9998 27.8535 18.9998C27.4391 18.9998 27.0417 19.1644 26.7487 19.4574C26.4556 19.7505 26.291 20.1479 26.291 20.5623C26.291 20.9767 26.4556 21.3741 26.7487 21.6672C27.0417 21.9602 27.4391 22.1248 27.8535 22.1248ZM17.791 6.71855C19.1066 6.33001 20.6004 6.41126 21.9368 7.35709H16.3535C16.8039 7.08456 17.2869 6.87001 17.791 6.71855Z" fill="#3A478D"/>
<path fill-rule="evenodd" clip-rule="evenodd" d="M16.3537 7.35749H21.937C23.3193 8.33145 24.1464 9.95749 24.2037 11.6346C24.2954 14.2575 22.8912 16.4783 21.2402 18.2846C19.9599 19.6835 18.4131 20.9533 17.0943 22.0367C16.7152 22.3471 16.3547 22.6419 16.0266 22.921L15.3485 23.4939L14.6745 22.9148C14.312 22.6033 13.9099 22.271 13.487 21.92C12.2016 20.8575 10.712 19.6252 9.47661 18.2804C7.82557 16.4804 6.41828 14.2669 6.5037 11.6367V11.6346C6.56099 9.95749 7.38807 8.3304 8.7714 7.35645H14.3506C14.7089 7.57242 15.0433 7.81547 15.3537 8.08561C15.6658 7.81466 16.0003 7.57072 16.3537 7.35645M16.1558 10.2335C16.7297 9.53978 17.5412 8.96478 18.3818 8.71582C19.1985 8.47415 20.0068 8.5429 20.7329 9.05749L20.736 9.05957C21.5537 9.63457 22.0849 10.6398 22.1214 11.7054C22.1839 13.5106 21.2235 15.2148 19.7027 16.8773C18.5339 18.1554 17.1506 19.2919 15.8474 20.3617L15.3579 20.7637C15.1488 20.5887 14.9367 20.4127 14.7214 20.2356C13.462 19.1939 12.1412 18.1002 11.0131 16.871C9.4912 15.2137 8.52661 13.5169 8.58599 11.7044C8.62245 10.6387 9.15265 9.63457 9.9714 9.05853C10.6974 8.54811 11.5089 8.47832 12.3256 8.71999C13.1672 8.9679 13.9777 9.53978 14.5506 10.2335L15.3527 11.2044L16.1558 10.2335Z" fill="#3A478D"/>
<path d="M14.3517 7.35704H8.77148C10.1069 6.41642 11.6007 6.33413 12.9152 6.72163C13.4184 6.87058 13.9017 7.08829 14.3506 7.35704" fill="#3A478D"/>
<path fill-rule="evenodd" clip-rule="evenodd" d="M37.7177 24.8084C38.074 22.8563 35.3698 20.423 35.3698 20.423C34.4542 18.5271 34.4781 16.923 34.5052 15.1032C34.5125 14.5875 34.5208 14.0542 34.5073 13.4917C34.4408 11.0306 33.6386 8.64581 32.2042 6.64484C30.5982 4.7002 28.5277 3.1919 26.1844 2.25942C23.1645 0.928027 19.8993 0.243557 16.599 0.250046C12.2625 0.250046 8.10417 1.88963 5.03854 4.80838C1.97292 7.72713 0.25 11.6855 0.25 15.8125C0.25 20.7782 3.18125 24.6084 6.98646 27.4521V34.1698C8.06563 36.3657 12.1385 37.923 14.5177 37.7344C18.074 37.7344 19.5698 36.3334 20.1427 35.5032C20.3844 35.1532 20.4625 34.9053 20.4625 34.9053V33.423C20.4625 33.423 21.2958 33.6959 22.5458 33.9428C26.3063 34.6844 33.8385 35.1865 33.8385 27.299C33.8385 27.299 37.3615 26.7594 37.7177 24.8084ZM33.4927 21.3292L33.6708 21.699L33.9729 21.9698L33.975 21.9719L33.9823 21.9792L34.0417 22.0344C34.0969 22.0886 34.1813 22.1698 34.2823 22.2761C34.4896 22.4917 34.7542 22.7896 35.0031 23.125C35.2583 23.4688 35.4552 23.799 35.5698 24.0823C35.6313 24.2334 35.6531 24.3323 35.6615 24.3886L35.6083 24.4386C35.4573 24.5667 35.2042 24.7157 34.8552 24.8584C34.427 25.0304 33.9823 25.1581 33.5281 25.2396L33.5177 25.2417L31.7552 25.5105V27.3C31.7552 29.449 31.0948 30.5115 30.399 31.1042C29.624 31.7636 28.4615 32.1303 27.0156 32.224C25.5917 32.3178 24.1146 32.1303 22.9552 31.9011C22.3692 31.7857 21.7888 31.6439 21.2156 31.4761L21.1271 31.449L21.1115 31.4438H21.1083L18.3792 30.548V34.3876C18.284 34.5085 18.1757 34.6186 18.0563 34.7157C17.6271 35.0719 16.6302 35.6532 14.5177 35.6532H14.4344L14.3531 35.6584C13.6094 35.7178 12.349 35.4896 11.1063 34.9417C10.0917 34.4938 9.41771 33.9792 9.06979 33.5667V26.4105L8.23333 25.7855C4.69896 23.1417 2.33333 19.8563 2.33333 15.8125C2.33333 12.2709 3.81042 8.85421 6.475 6.31671C9.14271 3.77713 12.7833 2.33338 16.599 2.33338H16.601C19.6108 2.32701 22.5886 2.95081 25.3427 4.16463L25.376 4.17921L25.4094 4.19275C27.4354 5.00525 29.201 6.28755 30.5479 7.9115C31.7176 9.56122 32.3709 11.5212 32.425 13.5428C32.4344 13.9573 32.426 14.3938 32.4177 14.8511C32.3823 16.7271 32.3417 18.9428 33.4927 21.3292Z" fill="#3A478D"/>
</svg>
