<svg width="45" height="40" viewBox="0 0 45 40" fill="none" xmlns="http://www.w3.org/2000/svg">
<path d="M21.4785 14.792V9.06283C21.4785 7.26709 20.7652 5.5449 19.4954 4.27512C18.2256 3.00535 16.5034 2.29199 14.7077 2.29199C12.9119 2.29199 11.1898 3.00535 9.91998 4.27512C8.6502 5.5449 7.93685 7.26709 7.93685 9.06283V14.792M16.791 14.792H12.6243C7.73685 14.792 5.29518 14.792 3.61185 16.0837C3.17833 16.4163 2.7903 16.8043 2.45768 17.2378C1.16602 18.9212 1.16602 21.3628 1.16602 26.2503C1.16602 31.1378 1.16602 33.5795 2.45768 35.2628C2.7903 35.6963 3.17833 36.0844 3.61185 36.417C5.29518 37.7087 7.73685 37.7087 12.6243 37.7087H16.791C21.6785 37.7087 24.1202 37.7087 25.8035 36.417C26.237 36.0844 26.6251 35.6963 26.9577 35.2628C28.2494 33.5795 28.2494 31.1378 28.2494 26.2503C28.2494 21.3628 28.2494 18.9212 26.9577 17.2378C26.6251 16.8043 26.237 16.4163 25.8035 16.0837C24.1202 14.792 21.6785 14.792 16.791 14.792Z" stroke="#3A478D" stroke-width="1.5" stroke-linecap="round" stroke-linejoin="round"/>
<path d="M34.4994 14.7921C34.4994 15.2065 34.664 15.604 34.957 15.897C35.25 16.19 35.6475 16.3546 36.0619 16.3546C36.4763 16.3546 36.8737 16.19 37.1667 15.897C37.4597 15.604 37.6244 15.2065 37.6244 14.7921H34.4994ZM32.4181 13.2296C32.2129 13.2293 32.0097 13.2695 31.82 13.3478C31.6303 13.426 31.4579 13.5409 31.3126 13.6858C31.1674 13.8307 31.052 14.0028 30.9733 14.1923C30.8945 14.3817 30.8538 14.5848 30.8535 14.79C30.8532 14.9952 30.8934 15.1985 30.9717 15.3881C31.0499 15.5778 31.1648 15.7502 31.3097 15.8955C31.4546 16.0408 31.6267 16.1561 31.8161 16.2349C32.0056 16.3137 32.2087 16.3544 32.4139 16.3546L32.4181 13.2296ZM32.4139 36.1463C31.9995 36.1468 31.6023 36.312 31.3097 36.6054C31.0171 36.8988 30.853 37.2965 30.8535 37.7109C30.8541 38.1253 31.0192 38.5225 31.3126 38.8151C31.6061 39.1077 32.0037 39.2718 32.4181 39.2713L32.4139 36.1463ZM25.4431 1.66712C25.2612 1.76206 25.0997 1.8919 24.968 2.04923C24.8362 2.20656 24.7367 2.3883 24.6752 2.58408C24.6137 2.77986 24.5913 2.98583 24.6094 3.19025C24.6275 3.39467 24.6857 3.59352 24.7806 3.77546C24.8755 3.95739 25.0054 4.11885 25.1627 4.2506C25.32 4.38236 25.5018 4.48184 25.6976 4.54336C25.8933 4.60488 26.0993 4.62723 26.3037 4.60915C26.5081 4.59106 26.707 4.53289 26.8889 4.43796L25.4431 1.66712ZM41.2702 26.2505C41.2702 28.7296 41.2681 30.4588 41.1181 31.7838C40.9723 33.0755 40.7035 33.788 40.3014 34.313L42.7806 36.215C43.6702 35.0567 44.0473 33.7046 44.2243 32.1317C44.3973 30.5942 44.3952 28.6567 44.3952 26.2505H41.2702ZM40.3014 34.313C40.0513 34.6369 39.7608 34.9274 39.4369 35.1775L41.3389 37.6567C41.8834 37.2387 42.3639 36.7581 42.7806 36.215L40.3014 34.313ZM44.3952 26.2505C44.3952 23.8442 44.3973 21.9067 44.2243 20.3671C44.0473 18.7963 43.6702 17.4442 42.7806 16.2859L40.3014 18.188C40.7035 18.713 40.9723 19.4255 41.1181 20.7171C41.2681 22.0421 41.2702 23.7713 41.2702 26.2505H44.3952ZM39.4369 17.3234C39.7632 17.5748 40.0514 17.863 40.3014 18.188L42.7806 16.2859C42.3625 15.7414 41.882 15.2609 41.3389 14.8442L39.4369 17.3234ZM37.6244 14.7921V9.06296H34.4994V14.7921H37.6244ZM37.6244 9.06296C37.6244 6.85282 36.7464 4.7332 35.1836 3.1704C33.6208 1.6076 31.5012 0.729622 29.291 0.729622V3.85462C30.6724 3.85462 31.9971 4.40336 32.9739 5.38011C33.9506 6.35686 34.4994 7.68162 34.4994 9.06296H37.6244ZM32.4139 16.3546C34.5348 16.3588 36.0306 16.3838 37.1827 16.5421C38.3035 16.6921 38.9494 16.9505 39.4369 17.3234L41.3389 14.8442C40.266 14.0213 39.0264 13.6359 37.6014 13.4442C36.2077 13.2567 34.4973 13.2338 32.4181 13.2296L32.4139 16.3546ZM32.4181 39.2713C34.4994 39.2671 36.2098 39.2463 37.6014 39.0567C39.0285 38.865 40.266 38.4796 41.3389 37.6567L39.4369 35.1775C38.9494 35.5505 38.3035 35.8088 37.1827 35.9609C36.0306 36.1171 34.5348 36.1421 32.4119 36.1463L32.4181 39.2713ZM26.8889 4.43796C27.6056 4.06296 28.4223 3.85462 29.291 3.85462V0.729622C27.9056 0.729622 26.5973 1.06712 25.4431 1.66712L26.8889 4.43796Z" fill="#3A478D"/>
<path d="M9.5 26.2507C9.5 26.2507 11.5833 27.2923 12.625 30.4173C12.625 30.4173 15.75 24.1673 19.9167 22.084" stroke="#3A478D" stroke-width="1.5" stroke-linecap="round" stroke-linejoin="round"/>
</svg>
