<svg width="101" height="100" viewBox="0 0 101 100" fill="none" xmlns="http://www.w3.org/2000/svg">
<g clip-path="url(#clip0_407_865)">
<path d="M93.5497 28.1249H85.7955L66.7705 47.1416C67.4258 48.8116 67.486 50.6562 66.9411 52.3654C66.3963 54.0746 65.2795 55.544 63.7786 56.5266C62.2778 57.5092 60.4843 57.945 58.6999 57.7608C56.9155 57.5766 55.2489 56.7836 53.9804 55.5151C52.7119 54.2466 51.9189 52.58 51.7346 50.7956C51.5504 49.0111 51.9863 47.2177 52.9689 45.7168C53.9515 44.2159 55.4209 43.0992 57.1301 42.5543C58.8392 42.0094 60.6839 42.0697 62.3538 42.7249L81.3747 23.7041V15.9499C81.3751 14.9124 81.7872 13.9173 82.5205 13.1833L89.7288 5.97494C89.8622 5.84068 90.0297 5.74531 90.2132 5.69906C90.3967 5.65281 90.5894 5.65744 90.7705 5.71244C91.1413 5.82078 91.4163 6.12911 91.4913 6.50828L93.408 16.0958L102.991 18.0124C103.366 18.0874 103.675 18.3624 103.783 18.7333C103.838 18.9134 103.843 19.105 103.797 19.2877C103.752 19.4704 103.657 19.6373 103.525 19.7708L96.3122 26.9791C95.5791 27.7114 94.5858 28.1234 93.5497 28.1249Z" fill="white"/>
<path d="M20.4375 50C20.4375 60.36 24.553 70.2957 31.8786 77.6214C39.2043 84.947 49.14 89.0625 59.5 89.0625C64.6298 89.0625 69.7093 88.0521 74.4486 86.0891C79.1879 84.126 83.4941 81.2487 87.1214 77.6214C90.7486 73.9941 93.626 69.6879 95.589 64.9486C97.5521 60.2093 98.5625 55.1298 98.5625 50C98.5625 46.2584 98.0375 42.6417 97.0583 39.2209C96.8637 38.4354 96.9813 37.6051 97.3865 36.9046C97.7916 36.2041 98.4527 35.6881 99.2306 35.4652C100.008 35.2422 100.843 35.3297 101.557 35.7092C102.272 36.0888 102.812 36.7307 103.062 37.5C104.204 41.475 104.812 45.6667 104.812 50C104.812 75.025 84.525 95.3125 59.5 95.3125C34.475 95.3125 14.1875 75.025 14.1875 50C14.1875 24.975 34.475 4.68752 59.5 4.68752C63.7292 4.68336 67.9333 5.27086 72 6.43336C72.3965 6.54458 72.7671 6.73308 73.0905 6.98802C73.414 7.24296 73.6838 7.55931 73.8845 7.91888C74.0853 8.27846 74.213 8.67416 74.2603 9.08325C74.3076 9.49234 74.2736 9.90675 74.1602 10.3026C74.0468 10.6985 73.8563 11.0681 73.5996 11.3901C73.3429 11.7122 73.0251 11.9803 72.6644 12.1791C72.3037 12.3778 71.9073 12.5034 71.498 12.5484C71.0887 12.5935 70.6744 12.5572 70.2792 12.4417C66.7736 11.4411 63.1455 10.9348 59.5 10.9375C49.14 10.9375 39.2043 15.053 31.8786 22.3787C24.553 29.7043 20.4375 39.64 20.4375 50Z" fill="white"/>
<path d="M39.1882 50.0001C39.1998 52.7598 39.7738 55.4881 40.8751 58.0186C41.9763 60.549 43.5818 62.8285 45.5934 64.7178C47.605 66.6071 49.9806 68.0665 52.5751 69.007C55.1696 69.9476 57.9285 70.3495 60.6835 70.1881C63.4385 70.0268 66.1317 69.3057 68.5987 68.0687C71.0657 66.8318 73.2547 65.1051 75.032 62.9939C76.8094 60.8828 78.1378 58.4315 78.9362 55.7898C79.7346 53.1482 79.9863 50.3715 79.6757 47.6293C79.5882 47.0739 79.6526 46.5052 79.862 45.9835C80.0714 45.4617 80.418 45.0063 80.8651 44.6655C81.3123 44.3247 81.8433 44.1112 82.4019 44.0476C82.9605 43.984 83.5259 44.0727 84.0382 44.3043C85.084 44.7709 85.7882 45.7668 85.8799 46.9084C86.5268 52.3886 85.4504 57.9342 82.8002 62.7745C80.1501 67.6147 76.0578 71.509 71.0923 73.9162C66.1267 76.3233 60.5346 77.1237 55.0932 76.2061C49.6518 75.2885 44.6314 72.6984 40.7299 68.7959C36.8294 64.8977 34.2387 59.8823 33.3171 54.4454C32.3954 49.0085 33.1885 43.4195 35.5862 38.4536C37.984 33.4877 41.8677 29.391 46.6986 26.7317C51.5295 24.0724 57.0682 22.9823 62.5465 23.6126C62.9607 23.651 63.363 23.7717 63.7299 23.9677C64.0968 24.1636 64.4209 24.4308 64.6831 24.7536C64.9454 25.0764 65.1406 25.4483 65.2573 25.8475C65.374 26.2467 65.4098 26.6652 65.3627 27.0785C65.3155 27.4917 65.1864 27.8914 64.9828 28.2541C64.7791 28.6168 64.5052 28.9351 64.1769 29.1906C63.8487 29.446 63.4727 29.6333 63.0711 29.7416C62.6695 29.8498 62.2504 29.8768 61.8382 29.8209C58.9925 29.4919 56.1094 29.7685 53.3781 30.6323C50.6468 31.4962 48.129 32.928 45.9901 34.8336C43.8511 36.7392 42.1394 39.0756 40.9671 41.6894C39.7949 44.3032 39.1886 47.1354 39.1882 50.0001Z" fill="white"/>
</g>
<defs>
<clipPath id="clip0_407_865">
<rect width="100" height="100" fill="white" transform="translate(0.5)"/>
</clipPath>
</defs>
</svg>
