<svg width="101" height="100" viewBox="0 0 101 100" fill="none" xmlns="http://www.w3.org/2000/svg">
<g clip-path="url(#clip0_407_854)">
<path fill-rule="evenodd" clip-rule="evenodd" d="M59.5 80C82.79 80 102 69.195 102 55C102 40.805 82.79 30 59.5 30C36.21 30 17 40.805 17 55C17 69.195 36.21 80 59.5 80ZM59.5 35C80.395 35 97 44.34 97 55C97 65.66 80.395 75 59.5 75C38.605 75 22 65.66 22 55C22 44.34 38.605 35 59.5 35Z" fill="white"/>
<path d="M57.0005 17.5C57.0005 16.837 57.2638 16.2011 57.7327 15.7322C58.2015 15.2634 58.8374 15 59.5005 15C60.1635 15 60.7994 15.2634 61.2682 15.7322C61.7371 16.2011 62.0005 16.837 62.0005 17.5V32.5C62.0005 33.163 61.7371 33.7989 61.2682 34.2678C60.7994 34.7366 60.1635 35 59.5005 35C58.8374 35 58.2015 34.7366 57.7327 34.2678C57.2638 33.7989 57.0005 33.163 57.0005 32.5V17.5ZM77.0505 19.51C77.1994 18.8792 77.5874 18.3309 78.1328 17.9807C78.6782 17.6305 79.3383 17.5058 79.9739 17.6329C80.6094 17.76 81.1708 18.129 81.5395 18.662C81.9083 19.195 82.0556 19.8504 81.9505 20.49L79.4505 32.99C79.3016 33.6208 78.9135 34.1691 78.3681 34.5193C77.8227 34.8695 77.1626 34.9942 76.527 34.8671C75.8915 34.74 75.3301 34.371 74.9614 33.838C74.5926 33.305 74.4453 32.6496 74.5505 32.01L77.0505 19.51ZM41.9505 19.51C41.8015 18.8792 41.4135 18.3309 40.8681 17.9807C40.3227 17.6305 39.6626 17.5058 39.027 17.6329C38.3915 17.76 37.8301 18.129 37.4614 18.662C37.0926 19.195 36.9453 19.8504 37.0505 20.49L39.5505 32.99C39.6994 33.6208 40.0874 34.1691 40.6328 34.5193C41.1782 34.8695 41.8383 34.9942 42.4739 34.8671C43.1094 34.74 43.6708 34.371 44.0395 33.838C44.4083 33.305 44.5556 32.6496 44.4505 32.01L41.9505 19.51ZM21.6455 26.215C21.3047 25.6461 20.7518 25.2359 20.1086 25.0746C19.4653 24.9133 18.7843 25.0142 18.2155 25.355C17.6466 25.6958 17.2364 26.2486 17.0751 26.8919C16.9138 27.5351 17.0147 28.2161 17.3555 28.785L24.8555 41.285C25.1963 41.8539 25.7491 42.2641 26.3923 42.4254C27.0356 42.5867 27.7166 42.4858 28.2855 42.145C28.8543 41.8042 29.2646 41.2514 29.4258 40.6081C29.5871 39.9649 29.4863 39.2839 29.1455 38.715L21.6455 26.215ZM97.3555 26.215C97.5242 25.9333 97.7468 25.6876 98.0105 25.492C98.2742 25.2963 98.5738 25.1545 98.8923 25.0746C99.2109 24.9948 99.542 24.9784 99.8668 25.0265C100.192 25.0746 100.504 25.1863 100.785 25.355C101.067 25.5237 101.313 25.7463 101.508 26.01C101.704 26.2737 101.846 26.5734 101.926 26.8919C102.006 27.2104 102.022 27.5415 101.974 27.8663C101.926 28.1912 101.814 28.5033 101.645 28.785L94.1455 41.285C93.9767 41.5667 93.7541 41.8124 93.4904 42.008C93.2267 42.2037 92.9271 42.3455 92.6086 42.4254C92.2901 42.5052 91.959 42.5216 91.6341 42.4735C91.3093 42.4254 90.9971 42.3137 90.7155 42.145C90.4338 41.9763 90.1881 41.7537 89.9924 41.49C89.7968 41.2263 89.6549 40.9266 89.5751 40.6081C89.4952 40.2896 89.4789 39.9585 89.527 39.6337C89.5751 39.3088 89.6867 38.9967 89.8555 38.715L97.3555 26.215ZM74.5005 52.5C74.5005 56.4782 72.9201 60.2936 70.1071 63.1066C67.294 65.9197 63.4787 67.5 59.5005 67.5C55.5222 67.5 51.7069 65.9197 48.8939 63.1066C46.0808 60.2936 44.5005 56.4782 44.5005 52.5C44.5005 48.5218 46.0808 44.7064 48.8939 41.8934C51.7069 39.0804 55.5222 37.5 59.5005 37.5C63.4787 37.5 67.294 39.0804 70.1071 41.8934C72.9201 44.7064 74.5005 48.5218 74.5005 52.5Z" fill="white"/>
</g>
<defs>
<clipPath id="clip0_407_854">
<rect width="100" height="100" fill="white" transform="translate(0.5)"/>
</clipPath>
</defs>
</svg>
