<svg width="16" height="16" viewBox="0 0 16 16" fill="none" xmlns="http://www.w3.org/2000/svg">
<path fill-rule="evenodd" clip-rule="evenodd" d="M0.500001 8C0.500001 3.85775 3.85775 0.5 8 0.5C12.1423 0.5 15.5 3.85775 15.5 8C15.5 12.1423 12.1423 15.5 8 15.5C6.89497 15.5006 5.80345 15.2571 4.8035 14.7867L1.40075 15.4843C1.27926 15.5091 1.1535 15.5034 1.03474 15.4677C0.915976 15.432 0.807915 15.3675 0.720229 15.2798C0.632543 15.1921 0.567967 15.084 0.532282 14.9653C0.496598 14.8465 0.490918 14.7207 0.515751 14.5992L1.21325 11.1965C0.742922 10.1966 0.499365 9.10503 0.500001 8ZM4.625 6.875C4.32663 6.875 4.04048 6.99353 3.82951 7.2045C3.61853 7.41548 3.5 7.70163 3.5 8V8.0075C3.5 8.30587 3.61853 8.59202 3.82951 8.803C4.04048 9.01397 4.32663 9.1325 4.625 9.1325H4.6325C4.93087 9.1325 5.21702 9.01397 5.428 8.803C5.63898 8.59202 5.7575 8.30587 5.7575 8.0075V8C5.7575 7.70163 5.63898 7.41548 5.428 7.2045C5.21702 6.99353 4.93087 6.875 4.6325 6.875H4.625ZM8 6.875C7.70163 6.875 7.41548 6.99353 7.20451 7.2045C6.99353 7.41548 6.875 7.70163 6.875 8V8.0075C6.875 8.30587 6.99353 8.59202 7.20451 8.803C7.41548 9.01397 7.70163 9.1325 8 9.1325H8.0075C8.30587 9.1325 8.59202 9.01397 8.803 8.803C9.01398 8.59202 9.1325 8.30587 9.1325 8.0075V8C9.1325 7.70163 9.01398 7.41548 8.803 7.2045C8.59202 6.99353 8.30587 6.875 8.0075 6.875H8ZM10.25 8C10.25 7.70163 10.3685 7.41548 10.5795 7.2045C10.7905 6.99353 11.0766 6.875 11.375 6.875H11.3825C11.6809 6.875 11.967 6.99353 12.178 7.2045C12.389 7.41548 12.5075 7.70163 12.5075 8V8.0075C12.5075 8.30587 12.389 8.59202 12.178 8.803C11.967 9.01397 11.6809 9.1325 11.3825 9.1325H11.375C11.0766 9.1325 10.7905 9.01397 10.5795 8.803C10.3685 8.59202 10.25 8.30587 10.25 8.0075V8Z" fill="#3A478D"/>
</svg>
