<svg width="46" height="43" viewBox="0 0 46 43" fill="none" xmlns="http://www.w3.org/2000/svg">
<path d="M23 2.5C21.6739 2.5 20.4022 3.02678 19.4645 3.96447C18.5268 4.90215 18 6.17392 18 7.5C18 8.82608 18.5268 10.0979 19.4645 11.0355C20.4022 11.9732 21.6739 12.5 23 12.5C24.3261 12.5 25.5979 11.9732 26.5356 11.0355C27.4732 10.0979 28 8.82608 28 7.5C28 6.17392 27.4732 4.90215 26.5356 3.96447C25.5979 3.02678 24.3261 2.5 23 2.5ZM15.5 7.5C15.5 5.51088 16.2902 3.60322 17.6967 2.1967C19.1032 0.790177 21.0109 0 23 0C24.9891 0 26.8968 0.790177 28.3033 2.1967C29.7099 3.60322 30.5 5.51088 30.5 7.5C30.5 9.48912 29.7099 11.3968 28.3033 12.8033C26.8968 14.2098 24.9891 15 23 15C21.0109 15 19.1032 14.2098 17.6967 12.8033C16.2902 11.3968 15.5 9.48912 15.5 7.5ZM10.6325 19.99C10.5475 20.3967 10.505 20.8167 10.505 21.25V22.6125L3.92753 24.375C3.6073 24.4606 3.33418 24.6698 3.16822 24.9567C3.00225 25.2437 2.95704 25.5848 3.04253 25.905L4.66003 31.9425C5.13459 33.7107 6.2395 35.2442 7.76651 36.2541C9.29353 37.2639 11.1372 37.6804 12.95 37.425C13.525 38.2 14.1875 38.91 14.9225 39.5325L14.495 39.6575C13.2265 39.9978 11.9033 40.0848 10.6011 39.9137C9.29884 39.7425 8.04309 39.3165 6.90554 38.66C5.76798 38.0035 4.7709 37.1293 3.97124 36.0873C3.17158 35.0454 2.58501 33.8562 2.24503 32.5875L0.627526 26.55C0.500127 26.0743 0.467679 25.5781 0.532033 25.0899C0.596388 24.6016 0.756285 24.1308 1.00259 23.7044C1.2489 23.2779 1.5768 22.9042 1.96757 22.6044C2.35833 22.3047 2.8043 22.0849 3.28003 21.9575L10.6325 19.99ZM35.5 11.25C35.5 10.2554 35.8951 9.30161 36.5984 8.59835C37.3016 7.89509 38.2555 7.5 39.25 7.5C40.2446 7.5 41.1984 7.89509 41.9017 8.59835C42.6049 9.30161 43 10.2554 43 11.25C43 12.2446 42.6049 13.1984 41.9017 13.9017C41.1984 14.6049 40.2446 15 39.25 15C38.2555 15 37.3016 14.6049 36.5984 13.9017C35.8951 13.1984 35.5 12.2446 35.5 11.25ZM39.25 5C37.5924 5 36.0027 5.65848 34.8306 6.83058C33.6585 8.00268 33 9.5924 33 11.25C33 12.9076 33.6585 14.4973 34.8306 15.6694C36.0027 16.8415 37.5924 17.5 39.25 17.5C40.9076 17.5 42.4973 16.8415 43.6694 15.6694C44.8415 14.4973 45.5 12.9076 45.5 11.25C45.5 9.5924 44.8415 8.00268 43.6694 6.83058C42.4973 5.65848 40.9076 5 39.25 5ZM6.75003 7.5C5.75546 7.5 4.80164 7.89509 4.09838 8.59835C3.39511 9.30161 3.00003 10.2554 3.00003 11.25C3.00003 12.2446 3.39511 13.1984 4.09838 13.9017C4.80164 14.6049 5.75546 15 6.75003 15C7.74459 15 8.69841 14.6049 9.40168 13.9017C10.1049 13.1984 10.5 12.2446 10.5 11.25C10.5 10.2554 10.1049 9.30161 9.40168 8.59835C8.69841 7.89509 7.74459 7.5 6.75003 7.5ZM0.500026 11.25C0.500026 9.5924 1.15851 8.00268 2.33061 6.83058C3.50271 5.65848 5.09242 5 6.75003 5C8.40763 5 9.99734 5.65848 11.1694 6.83058C12.3415 8.00268 13 9.5924 13 11.25C13 12.9076 12.3415 14.4973 11.1694 15.6694C9.99734 16.8415 8.40763 17.5 6.75003 17.5C5.09242 17.5 3.50271 16.8415 2.33061 15.6694C1.15851 14.4973 0.500026 12.9076 0.500026 11.25ZM16.75 17.5C15.7555 17.5 14.8016 17.8951 14.0984 18.5983C13.3951 19.3016 13 20.2554 13 21.25V30C13.0001 31.3658 13.2799 32.7172 13.8223 33.9707C14.3647 35.2242 15.1581 36.3533 16.1537 37.2884C17.1492 38.2235 18.3257 38.9447 19.6107 39.4077C20.8957 39.8706 22.2619 40.0654 23.625 39.98C22.9782 39.1942 22.4206 38.3389 21.9625 37.43C20.1702 37.1797 18.5288 36.2897 17.3411 34.9242C16.1534 33.5587 15.4995 31.8098 15.5 30V21.25C15.5 20.9185 15.6317 20.6005 15.8661 20.3661C16.1006 20.1317 16.4185 20 16.75 20H26.3425C27.7321 19.0219 29.2909 18.3099 30.94 17.9C30.4158 17.6363 29.8369 17.4993 29.25 17.5H16.75ZM45.5 31.25C45.5 34.2337 44.3148 37.0952 42.205 39.2049C40.0952 41.3147 37.2337 42.5 34.25 42.5C31.2663 42.5 28.4049 41.3147 26.2951 39.2049C24.1853 37.0952 23 34.2337 23 31.25C23 28.2663 24.1853 25.4048 26.2951 23.295C28.4049 21.1853 31.2663 20 34.25 20C37.2337 20 40.0952 21.1853 42.205 23.295C44.3148 25.4048 45.5 28.2663 45.5 31.25ZM35.5 26.25C35.5 25.9185 35.3683 25.6005 35.1339 25.3661C34.8995 25.1317 34.5815 25 34.25 25C33.9185 25 33.6006 25.1317 33.3661 25.3661C33.1317 25.6005 33 25.9185 33 26.25V30H29.25C28.9185 30 28.6006 30.1317 28.3661 30.3661C28.1317 30.6005 28 30.9185 28 31.25C28 31.5815 28.1317 31.8995 28.3661 32.1339C28.6006 32.3683 28.9185 32.5 29.25 32.5H33V36.25C33 36.5815 33.1317 36.8995 33.3661 37.1339C33.6006 37.3683 33.9185 37.5 34.25 37.5C34.5815 37.5 34.8995 37.3683 35.1339 37.1339C35.3683 36.8995 35.5 36.5815 35.5 36.25V32.5H39.25C39.5815 32.5 39.8995 32.3683 40.1339 32.1339C40.3683 31.8995 40.5 31.5815 40.5 31.25C40.5 30.9185 40.3683 30.6005 40.1339 30.3661C39.8995 30.1317 39.5815 30 39.25 30H35.5V26.25Z" fill="#3A478D"/>
</svg>
