<svg width="14" height="14" viewBox="0 0 14 14" fill="none" xmlns="http://www.w3.org/2000/svg">
<path d="M13.2515 0.415676L0.904275 4.53243C0.85372 4.54924 0.809477 4.58104 0.777425 4.62359C0.745374 4.66615 0.727031 4.71745 0.724833 4.77069C0.722635 4.82392 0.736687 4.87656 0.765122 4.92161C0.793557 4.96667 0.835028 5.002 0.884025 5.02293L5.42153 6.96768C5.4453 6.97797 5.47134 6.98193 5.4971 6.97917C5.52286 6.97641 5.54747 6.96702 5.56853 6.95193L10.0168 3.77343C10.1548 3.67593 10.3243 3.84543 10.2268 3.98343L7.04827 8.43168C7.03343 8.45272 7.02426 8.47722 7.02163 8.50284C7.019 8.52845 7.02301 8.55431 7.03328 8.57793L8.97727 13.1154C8.99813 13.1644 9.0334 13.206 9.07841 13.2345C9.12342 13.263 9.17603 13.2771 9.22926 13.275C9.28248 13.2728 9.33381 13.2546 9.37641 13.2226C9.41901 13.1906 9.45088 13.1464 9.46778 13.0959L13.5845 0.747926C13.6 0.701644 13.6023 0.65196 13.5911 0.604452C13.5799 0.556944 13.5557 0.513495 13.5212 0.478984C13.4867 0.444473 13.4433 0.420267 13.3958 0.409083C13.3482 0.3979 13.2978 0.400183 13.2515 0.415676Z" fill="#3A478D"/>
</svg>
