<svg width="92" height="86" viewBox="0 0 92 86" fill="none" xmlns="http://www.w3.org/2000/svg">
<path d="M54.3332 85.7499L42.6665 71.1666H20.9998C18.6987 71.1666 16.8332 69.3012 16.8332 66.9999V21.5939C16.8332 19.2928 18.6987 17.4273 20.9998 17.4273H87.6665C89.9678 17.4273 91.8332 19.2928 91.8332 21.5939V66.9999C91.8332 69.3012 89.9678 71.1666 87.6665 71.1666H65.9998L54.3332 85.7499ZM61.9944 62.8332H83.4998V25.7606H25.1665V62.8332H42.6665H46.6719L54.3332 72.4099L61.9944 62.8332ZM4.33317 0.333252H75.1665V8.66658H8.49984V54.4999H0.166504V4.49992C0.166504 2.19875 2.032 0.333252 4.33317 0.333252Z" fill="black"/>
</svg>
