<svg width="38" height="38" viewBox="0 0 38 38" fill="none" xmlns="http://www.w3.org/2000/svg">
<path fill-rule="evenodd" clip-rule="evenodd" d="M34.625 0.25H3.375C2.5462 0.25 1.75134 0.57924 1.16529 1.16529C0.57924 1.75134 0.25 2.5462 0.25 3.375V34.625C0.25 35.4538 0.57924 36.2487 1.16529 36.8347C1.75134 37.4208 2.5462 37.75 3.375 37.75H34.625C35.4538 37.75 36.2487 37.4208 36.8347 36.8347C37.4208 36.2487 37.75 35.4538 37.75 34.625V3.375C37.75 2.5462 37.4208 1.75134 36.8347 1.16529C36.2487 0.57924 35.4538 0.25 34.625 0.25ZM2.33333 3.375C2.33333 3.09873 2.44308 2.83378 2.63843 2.63843C2.83378 2.44308 3.09873 2.33333 3.375 2.33333H34.625C34.9013 2.33333 35.1662 2.44308 35.3616 2.63843C35.5569 2.83378 35.6667 3.09873 35.6667 3.375V34.625C35.6667 34.9013 35.5569 35.1662 35.3616 35.3616C35.1662 35.5569 34.9013 35.6667 34.625 35.6667H3.375C3.09873 35.6667 2.83378 35.5569 2.63843 35.3616C2.44308 35.1662 2.33333 34.9013 2.33333 34.625V3.375Z" fill="#3A478D"/>
</svg>
