<svg width="30" height="29" viewBox="0 0 30 29" fill="none" xmlns="http://www.w3.org/2000/svg">
<path fill-rule="evenodd" clip-rule="evenodd" d="M17.5356 25.3126L17.7491 25.1459C18.185 26.0102 18.8157 26.7614 19.5914 27.3404C20.3672 27.9193 21.2668 28.3102 22.2194 28.4822C23.172 28.6541 24.1515 28.6025 25.0807 28.3313C26.0099 28.0601 26.8634 27.5768 27.574 26.9194C28.2845 26.2621 28.8327 25.4487 29.1752 24.5433C29.5178 23.638 29.6453 22.6655 29.5479 21.7024C29.4504 20.7393 29.1306 19.8121 28.6137 18.9937C28.0967 18.1753 27.3967 17.4882 26.5689 16.9865C28.4106 14.574 29.6887 11.8344 29.5752 8.76568C29.5254 7.47085 29.1709 6.20601 28.5405 5.0739C27.9101 3.94179 27.0215 2.97432 25.947 2.25006C23.8606 0.850055 21.5377 0.724013 19.4554 1.30735C18.6693 1.53199 17.9123 1.8484 17.2002 2.25006C16.3939 2.70214 15.6502 3.2511 14.9991 3.85839C14.3304 3.23626 13.5898 2.69632 12.7929 2.25006C12.0818 1.8505 11.3263 1.53585 10.5418 1.31255C8.45851 0.730263 6.13768 0.857347 4.05226 2.25006C2.97738 2.97409 2.08846 3.94146 1.45769 5.07358C0.826919 6.20571 0.472099 7.47066 0.422051 8.76568V8.76776C0.282468 12.849 2.58247 16.3261 5.39601 19.2303C7.49809 21.4011 10.0179 23.3771 12.2377 25.1178C12.9814 25.7011 13.6918 26.2584 14.3418 26.7865L14.9939 27.3178L15.6502 26.7917C16.2377 26.3219 16.872 25.8282 17.5356 25.3126ZM20.0179 3.3136C18.3856 3.77193 16.8564 4.80943 15.7835 6.0386L14.9991 6.9386L14.2137 6.0386C13.1418 4.80943 11.6127 3.77505 9.98038 3.31985C8.36788 2.86776 6.69705 2.9886 5.20955 3.98235C4.40967 4.52372 3.74813 5.24542 3.27825 6.08928C2.80837 6.93315 2.54328 7.8756 2.50434 8.84068C2.39393 12.0594 4.20434 15.0053 6.89184 17.7813C8.88663 19.8396 11.2356 21.6824 13.4283 23.4021C13.9665 23.823 14.4915 24.2372 15.0033 24.6448C15.4373 24.3039 15.8807 23.9577 16.3335 23.6063L16.3387 23.6021L17.1168 22.9948C17.013 22.0214 17.1392 21.0371 17.4855 20.1214C17.8317 19.2056 18.3882 18.384 19.1102 17.7228C19.8321 17.0615 20.6993 16.5791 21.6419 16.3145C22.5844 16.0498 23.576 16.0103 24.5366 16.199C26.4189 13.8834 27.5887 11.4448 27.4939 8.84172C27.4553 7.87655 27.1904 6.93396 26.7207 6.0899C26.251 5.24585 25.5896 4.52394 24.7898 3.98235L24.7866 3.98026C23.2991 2.9813 21.6304 2.86151 20.0179 3.3136ZM27.4991 22.3334C27.4991 23.4385 27.0601 24.4983 26.2787 25.2797C25.4973 26.0611 24.4375 26.5001 23.3325 26.5001C22.2274 26.5001 21.1676 26.0611 20.3862 25.2797C19.6048 24.4983 19.1658 23.4385 19.1658 22.3334C19.1658 21.2283 19.6048 20.1685 20.3862 19.3871C21.1676 18.6057 22.2274 18.1667 23.3325 18.1667C24.4375 18.1667 25.4973 18.6057 26.2787 19.3871C27.0601 20.1685 27.4991 21.2283 27.4991 22.3334Z" fill="#3A478D"/>
</svg>
