<svg width="38" height="50" viewBox="0 0 38 50" fill="none" xmlns="http://www.w3.org/2000/svg">
<path d="M34.2854 33.3576C34.9565 32.7203 35.4909 31.9531 35.856 31.1027C36.2212 30.2524 36.4095 29.3366 36.4095 28.4111C36.4095 27.4857 36.2212 26.5699 35.856 25.7195C35.4909 24.8692 34.9565 24.102 34.2854 23.4647C32.9117 22.1609 31.09 21.4341 29.1961 21.4341C27.3022 21.4341 25.4805 22.1609 24.1068 23.4647L18.9997 28.5718L13.8925 23.4647C12.5188 22.1609 10.6972 21.4341 8.80325 21.4341C6.90934 21.4341 5.08766 22.1609 3.71396 23.4647C3.04288 24.102 2.5085 24.8692 2.14333 25.7195C1.77816 26.5699 1.58984 27.4857 1.58984 28.4111C1.58984 29.3366 1.77816 30.2524 2.14333 31.1027C2.5085 31.9531 3.04288 32.7203 3.71396 33.3576L18.9997 48.2147L34.2854 33.3576ZM18.9997 16.0718C20.8941 16.0718 22.7109 15.3193 24.0504 13.9798C25.39 12.6402 26.1425 10.8234 26.1425 8.92899C26.1425 7.03459 25.39 5.21777 24.0504 3.87823C22.7109 2.53868 20.8941 1.78613 18.9997 1.78613C17.1053 1.78613 15.2885 2.53868 13.9489 3.87823C12.6094 5.21777 11.8568 7.03459 11.8568 8.92899C11.8568 10.8234 12.6094 12.6402 13.9489 13.9798C15.2885 15.3193 17.1053 16.0718 18.9997 16.0718Z" stroke="white" stroke-width="2" stroke-linecap="round" stroke-linejoin="round"/>
</svg>
