<svg width="87" height="92" viewBox="0 0 87 92" fill="none" xmlns="http://www.w3.org/2000/svg">
<path d="M6.4375 46C6.4375 56.36 10.553 66.2957 17.8786 73.6214C25.2043 80.947 35.14 85.0625 45.5 85.0625C50.6298 85.0625 55.7093 84.0521 60.4486 82.0891C65.1879 80.126 69.4941 77.2487 73.1214 73.6214C76.7486 69.9941 79.626 65.6879 81.589 60.9486C83.5521 56.2093 84.5625 51.1298 84.5625 46C84.5625 42.2584 84.0375 38.6417 83.0583 35.2209C82.8637 34.4354 82.9813 33.6051 83.3865 32.9046C83.7916 32.2041 84.4527 31.6881 85.2306 31.4652C86.0085 31.2422 86.8425 31.3297 87.5572 31.7092C88.2719 32.0888 88.8115 32.7307 89.0625 33.5C90.2042 37.475 90.8125 41.6667 90.8125 46C90.8125 71.025 70.525 91.3125 45.5 91.3125C20.475 91.3125 0.1875 71.025 0.1875 46C0.1875 20.975 20.475 0.687522 45.5 0.687522C49.7292 0.683355 53.9333 1.27086 58 2.43336C58.3965 2.54458 58.7671 2.73308 59.0905 2.98802C59.414 3.24296 59.6838 3.55931 59.8845 3.91888C60.0853 4.27846 60.213 4.67416 60.2603 5.08325C60.3076 5.49234 60.2736 5.90675 60.1602 6.30265C60.0468 6.69854 59.8563 7.06813 59.5996 7.39015C59.3429 7.71217 59.0251 7.98028 58.6644 8.17906C58.3037 8.37784 57.9073 8.50337 57.498 8.54844C57.0887 8.59352 56.6744 8.55724 56.2792 8.44169C52.7736 7.44109 49.1455 6.93482 45.5 6.93752C35.14 6.93752 25.2043 11.053 17.8786 18.3787C10.553 25.7043 6.4375 35.64 6.4375 46Z" fill="white"/>
</svg>
