<svg width="71" height="70" viewBox="0 0 71 70" fill="none" xmlns="http://www.w3.org/2000/svg">
<path fill-rule="evenodd" clip-rule="evenodd" d="M35.1094 63C19.6454 63 7.10938 50.464 7.10938 35C7.10938 19.536 19.6454 7 35.1094 7C50.5733 7 63.1094 19.536 63.1094 35C63.1094 50.464 50.5733 63 35.1094 63ZM22.1345 32.5251L32.6345 22.0251C34.0013 20.6583 36.2174 20.6583 37.5842 22.0251C38.9511 23.392 38.9511 25.608 37.5842 26.9749L33.0591 31.5L45.6094 31.5C47.5424 31.5 49.1094 33.067 49.1094 35C49.1094 36.933 47.5424 38.5 45.6094 38.5H33.0591L37.5842 43.0251C38.9511 44.392 38.9511 46.608 37.5842 47.9749C36.2174 49.3417 34.0013 49.3417 32.6345 47.9749L22.1345 37.4749C20.7677 36.108 20.7677 33.892 22.1345 32.5251Z" fill="#0F172A"/>
</svg>
